<svg width="126" height="32" viewBox="0 0 126 32" fill="none" xmlns="http://www.w3.org/2000/svg">
<path d="M16.6821 17.0239C14.6049 17.0239 12.9546 17.8424 11.7879 19.451C11.105 18.2092 9.73924 17.0239 7.66208 17.0239C5.52801 17.0239 4.27603 17.9552 3.39395 18.943V18.6608C3.39395 17.8424 2.71104 17.165 1.88587 17.165C1.0607 17.165 0.40625 17.8424 0.40625 18.6608V30.0341C0.40625 30.8526 1.0607 31.5017 1.88587 31.5017C2.71104 31.5017 3.39395 30.8526 3.39395 30.0341V22.1603C4.07685 21.0596 5.1012 19.8179 6.95073 19.8179C8.71489 19.8179 9.39779 20.6645 9.39779 22.8658V30.0341C9.39779 30.8526 10.0522 31.5017 10.8774 31.5017C11.7026 31.5017 12.3855 30.8526 12.3855 30.0341V22.1603C13.0684 21.0596 14.0927 19.8179 15.9423 19.8179C17.7064 19.8179 18.3893 20.6645 18.3893 22.8658V30.0341C18.3893 30.8526 19.0438 31.5017 19.869 31.5017C20.6941 31.5017 21.377 30.8526 21.377 30.0341V22.3861C21.4339 19.7897 19.9543 17.0239 16.6821 17.0239ZM31.023 17.0239C29.3727 17.0239 27.8646 17.3344 26.2996 18.0117C25.759 18.2375 25.4175 18.689 25.4175 19.2817C25.4175 20.0154 25.9866 20.5799 26.698 20.5799C26.8118 20.5799 26.9541 20.5516 27.1248 20.5234C28.1776 20.1848 29.1735 19.9025 30.5962 19.9025C32.901 19.9025 33.8684 20.7492 33.8969 22.8376H30.9377C26.8972 22.8376 24.507 24.5591 24.507 27.4095C24.507 30.2035 26.8402 31.671 29.145 31.671C30.9946 31.671 32.588 31.1066 33.8969 30.0341V30.0624C33.8969 30.8808 34.5513 31.5299 35.3765 31.5299C36.2017 31.5299 36.8846 30.8808 36.8846 30.0624V22.5554C36.8846 19.7897 35.0635 17.0239 31.023 17.0239ZM30.0556 28.9335C28.3768 28.9335 27.4947 28.3126 27.4947 27.0991C27.4947 26.6475 27.4947 25.2929 31.2507 25.2929H33.8684V27.1273C33.1002 27.974 31.649 28.9335 30.0556 28.9335ZM42.7462 11.7182C43.6567 11.7182 44.3965 12.452 44.3965 13.3551V13.468C44.3965 14.3711 43.6567 15.1049 42.7462 15.1049H42.5754C41.6649 15.1049 40.9251 14.3711 40.9251 13.468V13.3551C40.9251 12.452 41.6649 11.7182 42.5754 11.7182H42.7462ZM42.6608 17.1368C43.5144 17.1368 44.1689 17.8141 44.1689 18.6326V30.0059C44.1689 30.8243 43.5144 31.4734 42.6608 31.4734C41.8356 31.4734 41.1812 30.8243 41.1812 30.0059V18.6326C41.1812 17.7859 41.8356 17.1368 42.6608 17.1368ZM50.2581 11.2949C51.1117 11.2949 51.7662 11.9722 51.7662 12.7907V30.0059C51.7662 30.8243 51.1117 31.4734 50.2581 31.4734C49.4329 31.4734 48.7785 30.8243 48.7785 30.0059V12.7907C48.7785 11.944 49.4329 11.2949 50.2581 11.2949ZM62.1235 17.0239C59.9894 17.0239 58.2253 17.8141 57.0302 19.3099C56.0058 20.6081 55.4368 22.3861 55.4368 24.3334C55.4368 28.9053 58.1399 31.6428 62.6357 31.6428C65.1112 31.6428 66.3347 31.0783 67.4445 30.4292C67.9851 30.1188 68.2696 29.6673 68.2696 29.2157C68.2696 28.4819 67.6721 27.8893 66.9038 27.8893C66.6762 27.8893 66.477 27.9175 66.3063 28.0304C65.5096 28.4537 64.5137 28.8206 62.8349 28.8206C60.3309 28.8206 58.8513 27.6635 58.4814 25.4622H67.2168C68.0989 25.4622 68.7249 24.8413 68.7249 23.9947C68.7818 19.197 65.3388 17.0239 62.1235 17.0239ZM62.1235 19.6203C63.3755 19.6203 65.4811 20.3259 65.7657 22.9223H58.4814C58.7659 20.6363 60.4732 19.6203 62.1235 19.6203ZM79.1676 17.0239C79.9928 17.0239 80.6188 17.6448 80.6188 18.4632C80.6188 19.2817 79.9928 19.8743 79.1107 19.8743H78.9684C77.4319 19.8743 76.0661 20.6363 75.0986 22.0192V30.0059C75.0986 30.8243 74.4157 31.4734 73.5906 31.4734C72.7654 31.4734 72.111 30.8243 72.111 30.0059V18.6326C72.111 17.8141 72.7654 17.1368 73.5906 17.1368C74.4157 17.1368 75.0986 17.8141 75.0986 18.6326V18.9994C76.2937 17.7013 77.6026 17.0239 79.0253 17.0239H79.1676Z" fill="black"/>
<path d="M121.376 0.229492H90.6809C88.3152 0.229492 86.3535 2.17225 86.3535 4.515V18.8V21.5999V31.7422L92.3252 25.8854H121.405C123.771 25.8854 125.732 23.9426 125.732 21.5999V4.515C125.703 2.14368 123.771 0.229492 121.376 0.229492Z" fill="#09C269"/>
<path d="M115.722 10.1719C119.011 10.1719 120.511 12.7718 120.511 15.1717C120.511 15.8288 120.02 16.2859 119.357 16.2859H113.299C113.587 17.743 114.626 18.5144 116.27 18.5144C117.453 18.5144 118.116 18.2572 118.693 17.9715C118.838 17.8858 118.982 17.8573 119.155 17.8573C119.732 17.8573 120.193 18.3144 120.193 18.8858C120.193 19.2572 119.963 19.6 119.559 19.8286C118.751 20.2857 117.885 20.6857 116.097 20.6857C112.866 20.6857 110.904 18.7144 110.904 15.4288C110.904 11.5719 113.5 10.1719 115.722 10.1719ZM106.086 8.4863C106.461 8.4863 106.721 8.772 106.721 9.14341V10.3433H108.567C109.144 10.3433 109.606 10.8005 109.606 11.3719C109.606 11.9433 109.144 12.4004 108.567 12.4004H106.75V17.7716C106.75 18.5429 107.154 18.6001 107.702 18.6001C108.019 18.6001 108.192 18.5429 108.365 18.5144C108.51 18.4858 108.654 18.4287 108.827 18.4287C109.289 18.4287 109.808 18.8001 109.808 19.4C109.779 19.7715 109.577 20.1143 109.202 20.2857C108.654 20.5428 108.106 20.6571 107.5 20.6571C105.509 20.6571 104.442 19.7143 104.442 17.9144V12.4004H103.403C103.028 12.4004 102.769 12.1147 102.769 11.7718C102.769 11.5719 102.855 11.3719 103.028 11.229L105.567 8.74343C105.625 8.68629 105.827 8.4863 106.086 8.4863ZM94.4025 6.14355C95.0371 6.14355 95.5564 6.65782 95.5564 7.28636V19.4286C95.5564 20.0572 95.0371 20.5428 94.4025 20.5428C93.7678 20.5428 93.2773 20.0286 93.2773 19.4286V7.28636C93.2773 6.65782 93.7678 6.14355 94.4025 6.14355ZM99.7684 10.2576C100.403 10.2576 100.922 10.7719 100.922 11.4004V19.4286C100.922 20.0572 100.403 20.5428 99.7684 20.5428C99.1337 20.5428 98.6432 20.0286 98.6432 19.4286V11.4004C98.6432 10.7719 99.1337 10.2576 99.7684 10.2576ZM115.751 12.2004C114.654 12.2004 113.5 12.8575 113.299 14.3717H118.232C118.001 12.8575 116.847 12.2004 115.751 12.2004ZM99.8261 6.42926C100.518 6.42926 101.067 6.97209 101.067 7.65777V7.74348C101.067 8.42916 100.518 8.97199 99.8261 8.97199H99.7107C99.0183 8.97199 98.4702 8.42916 98.4702 7.74348V7.65777C98.4702 6.97209 99.0183 6.42926 99.7107 6.42926H99.8261Z" fill="white"/>
</svg>
