<svg width="43" height="43" viewBox="0 0 43 43" fill="none" xmlns="http://www.w3.org/2000/svg">
<g clip-path="url(#clip0_111_7118)">
<path d="M42.5009 21.5181C42.5009 21.8462 42.5009 22.1744 42.5009 22.5026C42.223 23.8404 41.3763 24.8085 40.4268 25.7143C39.8241 26.2896 39.2422 26.8858 38.6329 27.4535C37.7676 28.2586 37.3978 29.2475 37.4044 30.4191C37.411 31.6475 37.3989 32.8782 37.3322 34.1044C37.2064 36.4092 35.7537 37.84 33.4478 37.9221C32.1111 37.9691 30.7721 37.933 29.4343 37.9308C28.475 37.9287 27.6436 38.2415 26.9545 38.9175C26.3211 39.5389 25.6779 40.1514 25.0522 40.7804C24.13 41.7081 23.1554 42.5493 21.8307 42.8457C21.5025 42.8457 21.1743 42.8457 20.8462 42.8457C19.539 42.5733 18.5807 41.7606 17.6925 40.8297C17.0985 40.2072 16.4815 39.6067 15.8952 38.9777C15.089 38.1135 14.1023 37.7427 12.9297 37.7493C11.7012 37.7569 10.4706 37.7438 9.24543 37.676C6.93732 37.548 5.50979 36.0986 5.42556 33.7937C5.38071 32.5806 5.39493 31.3631 5.43103 30.1489C5.46822 28.915 5.08427 27.878 4.18728 27.0225C3.62392 26.4854 3.09557 25.9133 2.54097 25.3664C1.61772 24.4563 0.795116 23.4849 0.501953 22.1744C0.501953 21.8462 0.501953 21.5181 0.501953 21.1899C0.779802 19.8368 1.64288 18.8654 2.60332 17.9542C3.15792 17.428 3.68956 16.8756 4.2551 16.3615C5.20569 15.4962 5.62684 14.4373 5.60387 13.1531C5.58199 11.9662 5.60496 10.7761 5.67059 9.59028C5.79858 7.28107 7.24799 5.85245 9.55282 5.76931C10.8075 5.72446 12.0655 5.74962 13.3213 5.7715C14.4458 5.79119 15.4084 5.45099 16.2037 4.64042C16.7769 4.05518 17.3763 3.49511 17.9528 2.91316C18.8739 1.98445 19.8453 1.13887 21.1743 0.845703C21.5025 0.845703 21.8307 0.845703 22.1588 0.845703C23.4529 1.11152 24.4035 1.91444 25.2841 2.83112C25.8901 3.4612 26.5136 4.07378 27.1098 4.71371C27.916 5.57898 28.9027 5.94871 30.0753 5.94215C31.3038 5.93558 32.5344 5.94762 33.7596 6.01434C36.0655 6.14124 37.4974 7.59502 37.5783 9.89876C37.6243 11.2081 37.5904 12.5197 37.5838 13.8302C37.5783 14.8322 37.8857 15.704 38.6011 16.4227C39.217 17.0419 39.8175 17.6785 40.4367 18.2944C41.3643 19.2176 42.2055 20.1923 42.5009 21.5181ZM8.53987 21.8506C8.54206 28.9948 14.3736 34.8176 21.5156 34.8067C28.6467 34.7957 34.4509 28.9905 34.4607 21.8605C34.4706 14.7152 28.6533 8.88909 21.5047 8.88581C14.3594 8.88144 8.53769 14.7031 8.53987 21.8506Z" fill="#CDEDD9"/>
<path d="M8.53906 21.8515C8.53688 14.704 14.3586 8.88235 21.5039 8.88672C28.6525 8.8911 34.4687 14.7161 34.4599 21.8614C34.4501 28.9914 28.6459 34.7967 21.5148 34.8076C14.3728 34.8185 8.54234 28.9957 8.53906 21.8515ZM15.4207 26.855C15.4065 28.9432 16.7028 29.8676 18.4082 29.2375C18.9168 29.0493 19.3905 28.7671 19.8794 28.5243C21.7248 27.6043 21.2829 27.6153 23.0977 28.5079C23.696 28.8021 24.2856 29.1401 24.9168 29.3348C26.3356 29.7735 27.5739 28.8524 27.5629 27.3669C27.5575 26.6493 27.412 25.9318 27.3103 25.2174C27.0619 23.476 26.9493 23.8096 28.2072 22.5057C28.6897 22.0058 29.2235 21.5398 29.6282 20.9819C30.546 19.7163 30.0712 18.2592 28.5923 17.7669C28.0289 17.5788 27.4207 17.5197 26.8311 17.4147C24.698 17.0362 25.0875 17.3753 24.1172 15.4938C23.9542 15.1788 23.8175 14.8495 23.6424 14.5411C23.4816 14.2566 23.311 13.9722 23.1021 13.7228C22.1887 12.6344 20.7896 12.6355 19.8904 13.7349C19.6257 14.0586 19.4233 14.4382 19.2176 14.8069C19.0317 15.1405 18.8446 15.4796 18.7221 15.8395C18.3732 16.8623 17.6523 17.2813 16.6011 17.3644C15.8189 17.4256 15.0204 17.5657 14.2831 17.8249C12.9267 18.3019 12.5066 19.6998 13.303 20.8966C13.5502 21.2685 13.8696 21.5956 14.1792 21.9204C14.5555 22.3164 14.9438 22.7037 15.3507 23.0668C15.808 23.476 15.9108 23.9573 15.7981 24.5436C15.633 25.399 15.5148 26.2643 15.4207 26.855Z" fill="#47805D"/>
<path d="M15.422 26.8539C15.5161 26.2643 15.6343 25.398 15.7994 24.5414C15.9121 23.954 15.8093 23.4738 15.352 23.0647C14.9451 22.7004 14.5579 22.3132 14.1805 21.9183C13.8709 21.5923 13.5515 21.2652 13.3043 20.8944C12.5068 19.6988 12.928 18.2997 14.2844 17.8228C15.0217 17.5635 15.8202 17.4235 16.6024 17.3622C17.6536 17.2791 18.3734 16.8601 18.7234 15.8373C18.8459 15.4785 19.0341 15.1383 19.2189 14.8047C19.4246 14.4361 19.627 14.0565 19.8917 13.7327C20.7909 12.6333 22.19 12.6322 23.1034 13.7207C23.3123 13.969 23.4829 14.2545 23.6437 14.5389C23.8188 14.8474 23.9555 15.1755 24.1185 15.4917C25.0888 17.3732 24.6993 17.0341 26.8324 17.4125C27.422 17.5176 28.0292 17.5777 28.5936 17.7648C30.0725 18.257 30.5484 19.7141 29.6295 20.9797C29.2248 21.5376 28.691 22.0036 28.2086 22.5035C26.9506 23.8074 27.0632 23.4749 27.3116 25.2153C27.4133 25.9296 27.5599 26.6472 27.5642 27.3648C27.5752 28.8503 26.3369 29.7713 24.9181 29.3327C24.2869 29.138 23.6973 28.8 23.099 28.5057C21.2842 27.6131 21.7261 27.6032 19.8807 28.5221C19.3929 28.765 18.9192 29.0483 18.4095 29.2353C16.7041 29.8665 15.4078 28.9411 15.422 26.8539Z" fill="white"/>
</g>
<defs>
<clipPath id="clip0_111_7118">
<rect width="42" height="42" fill="white" transform="translate(0.5 0.845703)"/>
</clipPath>
</defs>
</svg>
