<svg width="48" height="48" viewBox="0 0 48 48" fill="none" xmlns="http://www.w3.org/2000/svg">
<g clip-path="url(#clip0_111_7062)">
<path d="M24.4067 44.7173C24.1348 44.7173 23.8639 44.7173 23.5919 44.7173C22.494 44.5401 21.6588 43.926 20.9061 43.1488C20.292 42.5153 19.6371 41.9225 19.0076 41.3043C18.6613 40.9641 18.259 40.8327 17.7823 40.903C16.7486 41.0548 15.7138 41.1923 14.681 41.3522C12.4616 41.6974 10.7332 40.517 10.2892 38.3129C10.0824 37.2893 9.90212 36.2606 9.74731 35.2279C9.65463 34.6086 9.36333 34.19 8.8001 33.9099C7.87834 33.4506 6.97085 32.9586 6.06539 32.4677C4.13124 31.4186 3.48347 29.4295 4.42966 27.4424C4.88392 26.488 5.34632 25.5357 5.82502 24.5936C6.07965 24.0915 6.07761 23.6199 5.82299 23.1188C5.3504 22.1879 4.89512 21.2478 4.44392 20.3067C3.4743 18.2859 4.1292 16.2886 6.10715 15.2274C7.02687 14.7334 7.94556 14.2353 8.87648 13.7638C9.3837 13.5061 9.64648 13.1129 9.73509 12.5629C9.89703 11.5587 10.0702 10.5565 10.2505 9.55527C10.6558 7.31047 12.2712 6.09233 14.5292 6.35001C15.5661 6.46816 16.5999 6.62501 17.6306 6.79408C18.1999 6.88677 18.6623 6.76353 19.0748 6.35001C19.8224 5.60039 20.5904 4.87011 21.3563 4.13882C22.9462 2.62124 25.0504 2.62022 26.6403 4.13679C27.4266 4.88641 28.2068 5.64215 28.9819 6.40297C29.3394 6.75436 29.7539 6.88473 30.2448 6.8114C31.2776 6.6576 32.3124 6.51501 33.3452 6.3602C35.5503 6.02918 37.2624 7.2076 37.7075 9.39434C37.9183 10.4302 38.0925 11.4741 38.2575 12.5191C38.3491 13.1017 38.619 13.5112 39.1568 13.7801C40.0653 14.2353 40.9565 14.7283 41.8538 15.207C43.897 16.2968 44.5407 18.289 43.5252 20.3759C43.0862 21.2783 42.6564 22.1848 42.1971 23.077C41.9251 23.6046 41.919 24.0966 42.191 24.6262C42.6666 25.5551 43.1209 26.4962 43.57 27.4383C44.5183 29.4285 43.8735 31.4146 41.9394 32.4646C41.0095 32.9688 40.0776 33.4689 39.1344 33.9476C38.6282 34.2043 38.3573 34.5913 38.2687 35.1423C38.1067 36.1466 37.9326 37.1488 37.7533 38.15C37.35 40.4101 35.7071 41.6404 33.442 41.3644C32.4051 41.2381 31.3713 41.0853 30.3406 40.9193C29.7855 40.8297 29.3333 40.956 28.933 41.3583C28.33 41.9653 27.6894 42.5336 27.0946 43.1478C26.3409 43.926 25.5047 44.5401 24.4067 44.7173ZM33.227 15.9851C33.1364 15.2487 32.5986 14.7201 31.9172 14.7242C31.5017 14.7273 31.2084 14.9483 30.9323 15.2243C25.742 20.4177 20.5496 25.609 15.3583 30.8024C15.2625 30.8982 15.1627 30.9939 15.0863 31.1049C14.8185 31.495 14.7798 31.9157 14.9947 32.3363C15.2086 32.7559 15.564 32.9759 16.0417 32.9922C16.5092 33.0085 16.8199 32.7396 17.1244 32.4351C21.7006 27.8549 26.2788 23.2777 30.857 18.6995C31.4711 18.0853 32.1016 17.4864 32.6913 16.8488C32.9174 16.6054 33.0508 16.2754 33.227 15.9851ZM28.7986 25.8739C26.3501 25.882 24.3935 27.862 24.4057 30.3186C24.4179 32.705 26.4081 34.6819 28.8047 34.687C31.2338 34.6921 33.226 32.6877 33.2138 30.2514C33.2026 27.8192 31.2328 25.8667 28.7986 25.8739ZM19.2021 21.8446C21.6313 21.8344 23.597 19.8626 23.595 17.4375C23.593 15.0084 21.5783 13.008 19.1543 13.0294C16.7374 13.0498 14.7737 15.045 14.7859 17.466C14.7971 19.8962 16.773 21.8548 19.2021 21.8446Z" fill="#CDEDD9"/>
<path d="M33.2283 15.9856C33.0521 16.2769 32.9187 16.6069 32.6926 16.8503C32.1028 17.4868 31.4724 18.0868 30.8582 18.7009C26.28 23.2791 21.7018 27.8563 17.1256 32.4366C16.8211 32.7411 16.5094 33.01 16.043 32.9937C15.5653 32.9764 15.2098 32.7574 14.9959 32.3378C14.781 31.9171 14.8197 31.4965 15.0876 31.1064C15.164 30.9954 15.2638 30.8996 15.3595 30.8039C20.5509 25.6095 25.7433 20.4181 30.9336 15.2247C31.2096 14.9477 31.5029 14.7267 31.9185 14.7246C32.5999 14.7196 33.1376 15.2492 33.2283 15.9856Z" fill="#09C269"/>
<path d="M28.7981 25.875C31.2324 25.8669 33.2022 27.8194 33.2144 30.2526C33.2266 32.6889 31.2344 34.6923 28.8053 34.6882C26.4097 34.6831 24.4196 32.7072 24.4063 30.3198C24.3931 27.8632 26.3486 25.8832 28.7981 25.875ZM28.8246 32.2672C29.9277 32.2611 30.8168 31.3699 30.8148 30.273C30.8128 29.1862 29.9073 28.2787 28.8185 28.2716C27.7175 28.2645 26.7927 29.1994 26.8131 30.2984C26.8324 31.4076 27.7175 32.2733 28.8246 32.2672Z" fill="#09C269"/>
<path d="M19.2015 21.8437C16.7733 21.8539 14.7974 19.8953 14.7852 17.4641C14.773 15.0431 16.7367 13.0489 19.1536 13.0275C21.5777 13.0071 23.5923 15.0075 23.5943 17.4356C23.5964 19.8617 21.6306 21.8335 19.2015 21.8437ZM21.1855 17.4264C21.1723 16.3214 20.2862 15.4465 19.1811 15.4495C18.0781 15.4526 17.1879 16.3387 17.1828 17.4366C17.1787 18.5326 18.1198 19.4655 19.2117 19.4472C20.3035 19.4278 21.1988 18.5112 21.1855 17.4264Z" fill="#09C269"/>
<path d="M28.8244 32.2671C27.7172 32.2733 26.8322 31.4075 26.8128 30.2984C26.7934 29.1984 27.7172 28.2644 28.8182 28.2715C29.907 28.2787 30.8125 29.1861 30.8145 30.2729C30.8166 31.3688 29.9274 32.26 28.8244 32.2671Z" fill="#CDEDD9"/>
<path d="M21.1853 17.4262C21.1976 18.5109 20.3023 19.4286 19.2125 19.4469C18.1206 19.4662 17.1785 18.5333 17.1836 17.4363C17.1877 16.3384 18.0789 15.4523 19.1819 15.4492C20.286 15.4462 21.1731 16.3201 21.1853 17.4262Z" fill="#CDEDD9"/>
</g>
<defs>
<clipPath id="clip0_111_7062">
<rect width="40" height="41.7162" fill="white" transform="translate(4 3)"/>
</clipPath>
</defs>
</svg>
