<svg width="19" height="18" viewBox="0 0 19 18" fill="none" xmlns="http://www.w3.org/2000/svg">
<path d="M15.609 3.90147C15.5026 3.77659 15.3958 3.65509 15.2858 3.54203C14.5482 2.77462 13.6627 2.16476 12.6827 1.74933C11.7027 1.3339 10.6487 1.12152 9.58426 1.12504C8.51986 1.12857 7.46724 1.34791 6.49003 1.76982C5.51282 2.19173 4.63132 2.80744 3.89883 3.57972C3.79843 3.68631 3.70196 3.79262 3.60971 3.90175C2.39914 5.32466 1.73438 7.13191 1.73438 9.00011C1.73438 10.8683 2.39914 12.6756 3.60971 14.0985C3.71602 14.2233 3.8229 14.3448 3.93287 14.4579C4.67045 15.2253 5.556 15.8352 6.53598 16.2506C7.51596 16.666 8.57002 16.8784 9.63441 16.8749C10.6988 16.8714 11.7514 16.652 12.7286 16.2301C13.7059 15.8082 14.5873 15.1925 15.3198 14.4202C15.4202 14.3136 15.5167 14.2073 15.609 14.0982C16.8195 12.6753 17.4843 10.868 17.4843 8.99983C17.4843 7.13162 16.8195 5.32438 15.609 3.90147ZM6.89021 10.8647C6.81977 10.2352 6.78465 9.60237 6.78502 8.96903C6.78502 8.4594 6.81315 7.9509 6.85674 7.44747H12.3614C12.4047 7.95175 12.4334 8.45997 12.4334 8.96903C12.4337 9.60237 12.3986 10.2352 12.3282 10.8647H6.89021ZM2.85962 8.99997C2.86151 8.47693 2.92447 7.9559 3.04721 7.44747H5.72837C5.68787 7.95231 5.66002 8.45997 5.66002 8.96903C5.65956 9.60217 5.69213 10.2349 5.75762 10.8647H3.12652C2.95076 10.2586 2.86091 9.63095 2.85962 8.99997ZM13.4909 7.44747H16.1731C16.4475 8.57372 16.4201 9.7524 16.0936 10.8647H13.4608C13.5262 10.2349 13.5588 9.60217 13.5584 8.96903C13.5584 8.46109 13.5305 7.95315 13.4909 7.44747ZM14.754 4.63131C15.1846 5.13994 15.537 5.70992 15.7996 6.32247H13.368C13.2381 5.42901 13.0201 4.55061 12.7171 3.70009C12.6693 3.56847 12.6212 3.43993 12.5698 3.31506C12.4981 3.14434 12.4235 2.98234 12.347 2.82681C13.1475 3.18305 13.871 3.69163 14.4772 4.32418C14.5726 4.42234 14.6628 4.52584 14.7531 4.63131H14.754ZM10.709 2.3394C11.0538 2.76393 11.3312 3.23899 11.5314 3.7479C11.5761 3.85562 11.618 3.96897 11.6605 4.0854C11.9185 4.81156 12.1081 5.56022 12.2269 6.32162H6.9923C7.11183 5.5577 7.30241 4.80659 7.56155 4.07809C7.59783 3.97431 7.63665 3.87587 7.67405 3.78193C7.87522 3.26125 8.15576 2.77484 8.50571 2.33997C9.23528 2.22034 9.97946 2.22034 10.709 2.33997V2.3394ZM4.46921 4.62765C4.54937 4.53203 4.63205 4.44175 4.71643 4.35259C5.32688 3.70596 6.05964 3.18696 6.87221 2.82568C6.78952 2.99443 6.70937 3.17134 6.63315 3.35781C6.58758 3.47031 6.5423 3.58534 6.50265 3.6984C6.20108 4.54964 5.9844 5.4286 5.85577 6.32247H3.42071C3.68414 5.70862 4.03752 5.13741 4.46921 4.62765ZM4.46612 13.3686C4.10968 12.9481 3.80645 12.4852 3.5633 11.9905H5.91793C6.04407 12.7561 6.2396 13.5086 6.50208 14.2388C6.5499 14.3704 6.59799 14.499 6.64918 14.6227C6.73243 14.8228 6.81952 15.0123 6.91046 15.1914C6.09482 14.8344 5.35786 14.3196 4.74202 13.6766C4.64668 13.5776 4.5564 13.4741 4.46612 13.3686ZM8.56899 15.6707C8.19565 15.2293 7.89799 14.7291 7.68812 14.1904C7.6434 14.0824 7.60149 13.9688 7.55846 13.8501C7.33941 13.2452 7.17203 12.6228 7.05812 11.9897H12.1614C12.0466 12.626 11.8781 13.2515 11.6577 13.8594C11.627 13.9477 11.5941 14.0301 11.5612 14.1125L11.5443 14.155C11.3338 14.7077 11.0305 15.2203 10.6474 15.6709C9.9585 15.7759 9.25764 15.7759 8.56871 15.6709L8.56899 15.6707ZM14.7503 13.3723C14.6701 13.4679 14.5875 13.5582 14.5031 13.6473C13.883 14.3045 13.1369 14.83 12.3093 15.1925C12.4072 14.9987 12.501 14.793 12.5906 14.5755L12.6097 14.5277C12.648 14.4306 12.6862 14.3342 12.7186 14.2411C12.9814 13.5104 13.1773 12.7573 13.3038 11.9911H15.6565C15.4121 12.4869 15.1079 12.9508 14.7503 13.3723Z" fill="black"/>
</svg>
