<svg width="67" height="12" viewBox="0 0 67 12" fill="none" xmlns="http://www.w3.org/2000/svg">
<path d="M12.7597 6.3122C12.7654 6.20435 12.7767 6.10218 12.7767 5.99432C12.7767 5.88647 12.7654 5.7843 12.7597 5.67644C11.5461 5.13718 10.4003 4.38221 9.40683 3.38316C8.41338 2.38411 7.66265 1.23179 7.12641 0.0113529C7.02481 0.0113529 6.91756 0 6.81596 0C6.71435 0 6.60711 0.0113529 6.49986 0.0170293C5.96362 1.23746 5.21289 2.38978 4.21944 3.38884C3.22599 4.38789 2.08013 5.14286 0.866543 5.68212C0.860899 5.7843 0.849609 5.89215 0.849609 6C0.849609 6.10785 0.860899 6.21003 0.866543 6.31788C2.08013 6.85714 3.22599 7.61211 4.21944 8.61116C5.21289 9.61022 5.96362 10.7625 6.49986 11.983C6.60711 11.9886 6.70871 12 6.81596 12C6.9232 12 7.02481 11.9886 7.13205 11.983C7.66829 10.7625 8.41902 9.61022 9.41248 8.61116C10.4059 7.61211 11.5461 6.85147 12.7597 6.3122Z" fill="#EECC54"/>
<path d="M26.1035 6.3122C26.1091 6.20435 26.1204 6.10218 26.1204 5.99432C26.1204 5.88647 26.1091 5.7843 26.1035 5.67644C24.8899 5.13718 23.744 4.38221 22.7506 3.38316C21.7571 2.38411 21.0064 1.23179 20.4702 0.0113529C20.3686 0.0113529 20.2613 0 20.1597 0C20.0581 0 19.9509 0.0113529 19.8436 0.0170293C19.3074 1.23746 18.5566 2.38978 17.5632 3.38884C16.5697 4.38789 15.4239 5.14286 14.2103 5.68212C14.2046 5.78997 14.1934 5.89215 14.1934 6C14.1934 6.10785 14.2046 6.21003 14.2103 6.31788C15.4239 6.85714 16.5697 7.61211 17.5632 8.61116C18.5566 9.61022 19.3074 10.7625 19.8436 11.983C19.9509 11.9886 20.0525 12 20.1597 12C20.267 12 20.3686 11.9886 20.4758 11.983C21.012 10.7625 21.7628 9.61022 22.7562 8.61116C23.7497 7.61211 24.8899 6.85147 26.1035 6.3122Z" fill="#EECC54"/>
<path d="M39.4472 6.3122C39.4529 6.20435 39.4642 6.10218 39.4642 5.99432C39.4642 5.88647 39.4529 5.7843 39.4472 5.67644C38.2336 5.13718 37.0878 4.38221 36.0943 3.38316C35.1009 2.38411 34.3501 1.23179 33.8139 0.0113529C33.7123 0.0113529 33.6051 0 33.5035 0C33.4019 0 33.2946 0.0113529 33.1874 0.0170293C32.6511 1.23746 31.9004 2.38978 30.9069 3.38884C29.9135 4.38789 28.7676 5.14286 27.554 5.68212C27.5484 5.78997 27.5371 5.89215 27.5371 6C27.5371 6.10785 27.5484 6.21003 27.554 6.31788C28.7676 6.85714 29.9135 7.61211 30.9069 8.61116C31.9004 9.61022 32.6511 10.7625 33.1874 11.983C33.2946 11.9886 33.3962 12 33.5035 12C33.6107 12 33.7123 11.9886 33.8196 11.983C34.3558 10.7625 35.1065 9.61022 36.1 8.61116C37.0934 7.61211 38.2336 6.85147 39.4472 6.3122Z" fill="#EECC54"/>
<path d="M52.791 6.3122C52.7966 6.20435 52.8079 6.10218 52.8079 5.99432C52.8079 5.88647 52.7966 5.7843 52.791 5.67644C51.5774 5.13718 50.4315 4.38221 49.4381 3.38316C48.4446 2.38411 47.6939 1.23179 47.1577 0.0113529C47.0561 0.0113529 46.9488 0 46.8472 0C46.7456 0 46.6384 0.0113529 46.5311 0.0170293C45.9949 1.23746 45.2441 2.38978 44.2507 3.38884C43.2572 4.38789 42.1114 5.14286 40.8978 5.68212C40.8921 5.78997 40.8809 5.89215 40.8809 6C40.8809 6.10785 40.8921 6.21003 40.8978 6.31788C42.1114 6.85714 43.2572 7.61211 44.2507 8.61116C45.2441 9.61022 45.9949 10.7625 46.5311 11.983C46.6384 11.9886 46.74 12 46.8472 12C46.9545 12 47.0561 11.9886 47.1633 11.983C47.6995 10.7625 48.4503 9.61022 49.4437 8.61116C50.4372 7.61211 51.5774 6.85147 52.791 6.3122Z" fill="#EECC54"/>
<path d="M66.1347 6.3122C66.1404 6.20435 66.1517 6.10218 66.1517 5.99432C66.1517 5.88647 66.1404 5.7843 66.1347 5.67644C64.9211 5.13718 63.7753 4.38221 62.7818 3.38316C61.7884 2.38411 61.0376 1.23179 60.5014 0.0113529C60.3998 0.0113529 60.2926 0 60.191 0C60.0894 0 59.9821 0.0113529 59.8749 0.0170293C59.3386 1.23746 58.5879 2.38978 57.5944 3.38884C56.601 4.38789 55.4551 5.14286 54.2415 5.68212C54.2359 5.78997 54.2246 5.89215 54.2246 6C54.2246 6.10785 54.2359 6.21003 54.2415 6.31788C55.4551 6.85714 56.601 7.61211 57.5944 8.61116C58.5879 9.61022 59.3386 10.7625 59.8749 11.983C59.9821 11.9886 60.0837 12 60.191 12C60.2982 12 60.3998 11.9886 60.5071 11.983C61.0433 10.7625 61.794 9.61022 62.7875 8.61116C63.7809 7.61211 64.9211 6.85147 66.1347 6.3122Z" fill="#EECC54"/>
</svg>
