<svg width="24" height="24" viewBox="0 0 24 24" fill="none" xmlns="http://www.w3.org/2000/svg">
<path fill-rule="evenodd" clip-rule="evenodd" d="M8.40623 17.9327C8.15677 17.6831 8.01664 17.3447 8.01664 16.9919C8.01664 16.6391 8.15677 16.3007 8.40623 16.0511L12.7881 11.6693L8.40623 7.28742C8.27914 7.16467 8.17777 7.01784 8.10803 6.8555C8.03829 6.69315 8.00159 6.51854 8.00005 6.34186C7.99851 6.16518 8.03218 5.98996 8.09909 5.82642C8.16599 5.66289 8.2648 5.51432 8.38974 5.38938C8.51468 5.26444 8.66325 5.16564 8.82678 5.09873C8.99031 5.03182 9.16553 4.99816 9.34222 4.99969C9.5189 5.00123 9.69351 5.03793 9.85585 5.10767C10.0182 5.17741 10.165 5.27878 10.2878 5.40588L15.6104 10.7285C15.8599 10.978 16 11.3164 16 11.6693C16 12.0221 15.8599 12.3605 15.6104 12.61L10.2878 17.9327C10.0382 18.1821 9.69985 18.3223 9.34701 18.3223C8.99416 18.3223 8.65577 18.1821 8.40623 17.9327Z" fill="white"/>
</svg>
