<svg width="9" height="6" viewBox="0 0 9 6" fill="none" xmlns="http://www.w3.org/2000/svg">
<path fill-rule="evenodd" clip-rule="evenodd" d="M0.843604 0.834074C0.993626 0.684098 1.19707 0.599845 1.4092 0.599845C1.62134 0.599845 1.82478 0.684098 1.9748 0.834074L4.6092 3.46847L7.2436 0.834074C7.3174 0.757666 7.40568 0.69672 7.50328 0.654793C7.60088 0.612866 7.70586 0.590797 7.81208 0.589874C7.91831 0.588951 8.02365 0.609192 8.12197 0.649417C8.22028 0.689642 8.30961 0.749044 8.38472 0.824158C8.45983 0.899272 8.51924 0.988594 8.55946 1.08691C8.59969 1.18523 8.61993 1.29057 8.619 1.3968C8.61808 1.50302 8.59601 1.60799 8.55409 1.7056C8.51216 1.8032 8.45121 1.89148 8.3748 1.96527L5.1748 5.16527C5.02478 5.31525 4.82134 5.3995 4.6092 5.3995C4.39707 5.3995 4.19363 5.31525 4.0436 5.16527L0.843604 1.96527C0.693627 1.81525 0.609375 1.61181 0.609375 1.39967C0.609375 1.18754 0.693627 0.984097 0.843604 0.834074Z" fill="black"/>
</svg>
